# xmcd CD database file
#
# Track frame offsets:
#	150
#	17735
#	30542
#	47100
#	64225
#	82197
#	96750
#	113385
#	133810
#	153020
#	172132
#	193075
#	213915
#	236830
#
# Disc length: 3428 seconds
#
# Revision: 1
# Processed by: cddbd v1.5.1PL2 Copyright (c) Steve Scherf et al.
# Submitted via: CDex 1.70beta1
#
DISCID=bd0d620e
DTITLE=THE ALFEE - Ａside Collection
DYEAR=1986
DGENRE=JPop
TTITLE0=ラブレター
TTITLE1=無言劇
TTITLE2=美しいシーズン
TTITLE3=恋人になりたい
TTITLE4=宛先のない手紙
TTITLE5=泣かないでＭＹ　ＬＯＶＥ
TTITLE6=別れの律動
TTITLE7=暁のパラダイス・ロード
TTITLE8=メリーアン
TTITLE9=星空のディスタンス
TTITLE10=恋人達のペイブメント
TTITLE11=シンデレラは眠れない
TTITLE12=霧のソフィア
TTITLE13=風曜日、君をつれて
EXTD=YEAR: 1986
EXTT0=
EXTT1=
EXTT2=
EXTT3=
EXTT4=
EXTT5=
EXTT6=
EXTT7=
EXTT8=
EXTT9=
EXTT10=
EXTT11=
EXTT12=
EXTT13=
PLAYORDER=
